HIERARCHY
ROOT hips
{
	OFFSET 0.000000 104.274902 0.000000
	CHANNELS 6 Xposition Yposition Zposition Xrotation Yrotation Zrotation
	JOINT spine
	{
		OFFSET 0.000000 10.181549 0.131524
		CHANNELS 6 Xposition Yposition Zposition Xrotation Yrotation Zrotation
		JOINT chest
		{
			OFFSET 0.000000 9.893990 -1.470706
			CHANNELS 3 Xrotation Yrotation Zrotation
			JOINT upperChest
			{
				OFFSET 0.000000 9.220787 -1.370637
				CHANNELS 3 Xrotation Yrotation Zrotation
				JOINT neck
				{
					OFFSET 0.000000 16.740372 -2.049022
					CHANNELS 6 Xposition Yposition Zposition Xrotation Yrotation Zrotation
					JOINT head
					{
						OFFSET 0.000000 9.617859 1.684976
						CHANNELS 6 Xposition Yposition Zposition Xrotation Yrotation Zrotation
						JOINT headEnd
						{
							OFFSET 0.000000 22.037384 7.501072
							CHANNELS 6 Xposition Yposition Zposition Xrotation Yrotation Zrotation
							End Site
							{
								OFFSET 0.000000 23.106567 -2.828246
							}
						}
					}
				}
				JOINT rightShoulder
				{
					OFFSET -4.570000 11.014877 -2.160840
					CHANNELS 6 Xposition Yposition Zposition Xrotation Yrotation Zrotation
					JOINT rightUpperArm
					{
						OFFSET -10.592867 -0.524796 -2.232105
						CHANNELS 3 Xrotation Yrotation Zrotation
						JOINT rightLowerArm
						{
							OFFSET -27.841497 0.000000 -0.000002
							CHANNELS 3 Xrotation Yrotation Zrotation
							JOINT rightHand
							{
								OFFSET -28.328812 0.000000 -0.000001
								CHANNELS 3 Xrotation Yrotation Zrotation
								JOINT rightThumbProximal
								{
									OFFSET -2.464798 -1.573990 2.681911
									CHANNELS 6 Xposition Yposition Zposition Xrotation Yrotation Zrotation
									JOINT rightThumbIntermediate
									{
										OFFSET -3.244781 -1.873383 1.873376
										CHANNELS 3 Xrotation Yrotation Zrotation
										JOINT rightThumbDistal
										{
											OFFSET -2.646263 -1.527817 1.527818
											CHANNELS 6 Xposition Yposition Zposition Xrotation Yrotation Zrotation
											JOINT rightHandThumb4
											{
												OFFSET -1.994591 -1.151581 1.151575
												CHANNELS 6 Xposition Yposition Zposition Xrotation Yrotation Zrotation
												End Site
												{
													OFFSET -1.860176 -1.142715 1.365483
												}
											}
										}
									}
								}
								JOINT rightIndexProximal
								{
									OFFSET -9.108299 -0.517883 2.259803
									CHANNELS 6 Xposition Yposition Zposition Xrotation Yrotation Zrotation
									JOINT rightIndexIntermediate
									{
										OFFSET -3.699997 0.000000 0.000000
										CHANNELS 3 Xrotation Yrotation Zrotation
										JOINT rightIndexDistal
										{
											OFFSET -2.850006 0.000000 0.000000
											CHANNELS 3 Xrotation Yrotation Zrotation
											JOINT rightHandIndex4
											{
												OFFSET -2.772194 0.000000 0.000000
												CHANNELS 3 Xrotation Yrotation Zrotation
												End Site
												{
													OFFSET -2.772202 0.000000 -0.000484
												}
											}
										}
									}
								}
								JOINT rightMiddleProximal
								{
									OFFSET -9.532501 0.000000 -0.000000
									CHANNELS 6 Xposition Yposition Zposition Xrotation Yrotation Zrotation
									JOINT rightMiddleIntermediate
									{
										OFFSET -3.699997 0.000000 0.000000
										CHANNELS 3 Xrotation Yrotation Zrotation
										JOINT rightMiddleDistal
										{
											OFFSET -2.949997 0.000000 0.000000
											CHANNELS 3 Xrotation Yrotation Zrotation
											JOINT rightHandMiddle4
											{
												OFFSET -2.946594 0.000000 0.000000
												CHANNELS 3 Xrotation Yrotation Zrotation
												End Site
												{
													OFFSET -2.946602 0.000000 -0.000982
												}
											}
										}
									}
								}
								JOINT rightRingProximal
								{
									OFFSET -9.103600 -0.043106 -1.865100
									CHANNELS 6 Xposition Yposition Zposition Xrotation Yrotation Zrotation
									JOINT rightRingIntermediate
									{
										OFFSET -3.379303 0.000000 0.000000
										CHANNELS 3 Xrotation Yrotation Zrotation
										JOINT rightRingDistal
										{
											OFFSET -2.889694 0.000000 0.000000
											CHANNELS 3 Xrotation Yrotation Zrotation
											JOINT rightHandRing4
											{
												OFFSET -2.638802 0.000000 0.000000
												CHANNELS 3 Xrotation Yrotation Zrotation
												End Site
												{
													OFFSET -2.638802 0.000000 0.004218
												}
											}
										}
									}
								}
								JOINT rightLittleProximal
								{
									OFFSET -8.076698 -0.486725 -3.806299
									CHANNELS 6 Xposition Yposition Zposition Xrotation Yrotation Zrotation
									JOINT rightLittleIntermediate
									{
										OFFSET -3.600006 0.000000 0.000000
										CHANNELS 3 Xrotation Yrotation Zrotation
										JOINT rightLittleDistal
										{
											OFFSET -2.099998 0.000000 0.000000
											CHANNELS 3 Xrotation Yrotation Zrotation
											JOINT rightHandPinky4
											{
												OFFSET -2.115791 0.000000 0.000000
												CHANNELS 3 Xrotation Yrotation Zrotation
												End Site
												{
													OFFSET -2.115799 0.000000 0.000174
												}
											}
										}
									}
								}
							}
						}
					}
				}
				JOINT leftShoulder
				{
					OFFSET 4.570400 11.014679 -2.160816
					CHANNELS 6 Xposition Yposition Zposition Xrotation Yrotation Zrotation
					JOINT leftUpperArm
					{
						OFFSET 10.592373 -0.524597 -2.232116
						CHANNELS 3 Xrotation Yrotation Zrotation
						JOINT leftLowerArm
						{
							OFFSET 27.841488 0.000000 0.000001
							CHANNELS 3 Xrotation Yrotation Zrotation
							JOINT leftHand
							{
								OFFSET 28.328808 0.000000 -0.000000
								CHANNELS 3 Xrotation Yrotation Zrotation
								JOINT leftThumbProximal
								{
									OFFSET 2.466103 -1.576202 2.681698
									CHANNELS 6 Xposition Yposition Zposition Xrotation Yrotation Zrotation
									JOINT leftThumbIntermediate
									{
										OFFSET 3.243317 -1.872528 1.872530
										CHANNELS 3 Xrotation Yrotation Zrotation
										JOINT leftThumbDistal
										{
											OFFSET 2.647881 -1.528763 1.528754
											CHANNELS 6 Xposition Yposition Zposition Xrotation Yrotation Zrotation
											JOINT leftHandThumb4
											{
												OFFSET 1.998924 -1.154083 1.154080
												CHANNELS 6 Xposition Yposition Zposition Xrotation Yrotation Zrotation
												End Site
												{
													OFFSET 1.884041 -1.149155 1.337651
												}
											}
										}
									}
								}
								JOINT leftIndexProximal
								{
									OFFSET 9.109299 -0.518005 2.259900
									CHANNELS 6 Xposition Yposition Zposition Xrotation Yrotation Zrotation
									JOINT leftIndexIntermediate
									{
										OFFSET 3.699997 0.000000 0.000000
										CHANNELS 3 Xrotation Yrotation Zrotation
										JOINT leftIndexDistal
										{
											OFFSET 2.850006 0.000000 0.000000
											CHANNELS 3 Xrotation Yrotation Zrotation
											JOINT leftHandIndex4
											{
												OFFSET 2.774895 0.000000 0.000000
												CHANNELS 3 Xrotation Yrotation Zrotation
												End Site
												{
													OFFSET 2.774902 0.000000 -0.000072
												}
											}
										}
									}
								}
								JOINT leftMiddleProximal
								{
									OFFSET 9.533401 0.000000 0.000000
									CHANNELS 6 Xposition Yposition Zposition Xrotation Yrotation Zrotation
									JOINT leftMiddleIntermediate
									{
										OFFSET 3.699997 0.000000 0.000000
										CHANNELS 3 Xrotation Yrotation Zrotation
										JOINT leftMiddleDistal
										{
											OFFSET 2.949997 0.000000 0.000000
											CHANNELS 3 Xrotation Yrotation Zrotation
											JOINT leftHandMiddle4
											{
												OFFSET 2.952896 0.000000 0.000000
												CHANNELS 3 Xrotation Yrotation Zrotation
												End Site
												{
													OFFSET 2.952904 0.000000 0.000165
												}
											}
										}
									}
								}
								JOINT leftRingProximal
								{
									OFFSET 9.104500 -0.042999 -1.865101
									CHANNELS 6 Xposition Yposition Zposition Xrotation Yrotation Zrotation
									JOINT leftRingIntermediate
									{
										OFFSET 3.149994 0.000000 0.000000
										CHANNELS 3 Xrotation Yrotation Zrotation
										JOINT leftRingDistal
										{
											OFFSET 2.950005 0.000000 0.000000
											CHANNELS 3 Xrotation Yrotation Zrotation
											JOINT leftHandRing4
											{
												OFFSET 2.644302 0.000000 0.000000
												CHANNELS 3 Xrotation Yrotation Zrotation
												End Site
												{
													OFFSET 2.644302 0.000000 0.000083
												}
											}
										}
									}
								}
								JOINT leftLittleProximal
								{
									OFFSET 8.077805 -0.486893 -3.806302
									CHANNELS 6 Xposition Yposition Zposition Xrotation Yrotation Zrotation
									JOINT leftLittleIntermediate
									{
										OFFSET 3.600006 0.000000 0.000000
										CHANNELS 3 Xrotation Yrotation Zrotation
										JOINT leftLittleDistal
										{
											OFFSET 2.099998 0.000000 0.000000
											CHANNELS 3 Xrotation Yrotation Zrotation
											JOINT leftHandPinky4
											{
												OFFSET 2.125496 0.000000 0.000000
												CHANNELS 3 Xrotation Yrotation Zrotation
												End Site
												{
													OFFSET 2.125504 0.000000 -0.001254
												}
											}
										}
									}
								}
							}
						}
					}
				}
			}
		}
	}
	JOINT rightUpperLeg
	{
		OFFSET -8.207800 -6.751701 -1.599544
		CHANNELS 6 Xposition Yposition Zposition Xrotation Yrotation Zrotation
		JOINT rightLowerLeg
		{
			OFFSET 0.000004 -44.370152 0.345934
			CHANNELS 3 Xrotation Yrotation Zrotation
			JOINT rightFoot
			{
				OFFSET 0.000004 -44.423664 -3.043535
				CHANNELS 3 Xrotation Yrotation Zrotation
				JOINT rightToes
				{
					OFFSET 0.000001 -8.728691 10.710592
					CHANNELS 3 Xrotation Yrotation Zrotation
					JOINT rightToesEnd
					{
						OFFSET 0.000000 -0.000665 9.278101
						CHANNELS 3 Xrotation Yrotation Zrotation
						End Site
						{
							OFFSET 0.000000 -0.000665 9.278103
						}
					}
				}
			}
		}
	}
	JOINT leftUpperLeg
	{
		OFFSET 8.207800 -6.751701 -1.599544
		CHANNELS 6 Xposition Yposition Zposition Xrotation Yrotation Zrotation
		JOINT leftLowerLeg
		{
			OFFSET 0.000004 -44.370037 0.346940
			CHANNELS 3 Xrotation Yrotation Zrotation
			JOINT leftFoot
			{
				OFFSET 0.000004 -44.423611 -3.044388
				CHANNELS 3 Xrotation Yrotation Zrotation
				JOINT leftToes
				{
					OFFSET 0.000001 -8.728690 10.710592
					CHANNELS 3 Xrotation Yrotation Zrotation
					JOINT leftToesEnd
					{
						OFFSET 0.000000 -0.000680 9.278101
						CHANNELS 3 Xrotation Yrotation Zrotation
						End Site
						{
							OFFSET 0.000000 -0.000680 9.278101
						}
					}
				}
			}
		}
	}
}
MOTION
Frames: 4
Frame Time: 0.033333
0.962950 101.648865 2.385967 -0.852547 1.474888 -5.249621 0.000001 10.181547 0.131522 0.768690 -1.290942 3.020071 0.508059 0.214815 5.982332 0.488852 0.736194 5.889083 0.000000 16.740330 -2.049019 0.589586 -0.219416 -2.170384 -0.000000 9.617876 1.684973 1.873375 1.177719 -9.451098 -0.000000 22.037399 7.501073 -0.000000 -0.000000 0.000000 -4.569998 11.014872 -2.160839 4.567067 2.970013 5.533094 0.420287 1.512420 66.683369 -0.000001 18.434925 0.000017 -12.879896 -9.931468 10.632661 -2.464810 -1.574005 2.681905 18.491291 0.461429 -10.916126 1.284017 -32.757649 3.088970 -2.646256 -1.527804 1.527817 2.008722 -8.430438 1.114716 -1.994601 -1.151569 1.151580 0.000003 -0.000002 0.000001 -9.108315 -0.517881 2.259801 0.339576 -4.671402 7.844315 0.387031 -2.823582 20.566287 -0.193121 -0.216351 13.843996 -0.000000 0.000000 0.000001 -9.532502 0.000015 -0.000003 0.912597 -8.769297 15.831777 0.919079 -3.991137 33.400540 0.216478 -1.688838 15.898121 -0.000000 -0.000000 0.000000 -9.103609 -0.043112 -1.865103 2.555841 -11.673053 26.909269 1.710658 -3.886780 40.215601 -0.157962 0.035269 17.815399 0.000001 0.000000 -0.000000 -8.076689 -0.486717 -3.806303 5.576090 -16.029172 36.940730 1.378696 -4.077647 45.645765 -0.727751 -0.247561 22.122795 -0.000000 0.000001 -0.000003 4.570400 11.014659 -2.160813 3.288714 -13.368996 -5.007607 4.460702 3.416858 -83.177777 -0.000003 -15.530240 0.000005 -26.483512 4.459630 -9.698579 2.466112 -1.576204 2.681693 18.491371 -0.461330 10.916054 1.284032 32.757608 -3.089024 2.647885 -1.528752 1.528754 2.117151 9.311162 -0.358644 1.998905 -1.154093 1.154067 0.000000 0.000001 0.000001 9.109303 -0.518014 2.259900 0.339552 4.671362 -7.844202 0.387011 2.823606 -20.566169 0.034619 0.816854 -10.169826 -0.000001 0.000001 -0.000003 9.533419 -0.000002 -0.000001 0.912573 8.769285 -15.831690 0.919035 3.991195 -33.400383 0.170560 1.488908 -12.264426 -0.000000 0.000000 -0.000001 9.104503 -0.042991 -1.865102 2.555788 11.673074 -26.909127 1.710616 3.886853 -40.215423 0.544832 1.835105 -19.344149 -0.000001 -0.000001 0.000000 8.077808 -0.486892 -3.806304 5.576036 16.029228 -36.940559 1.378645 4.077719 -45.645570 0.486567 2.853427 -20.524732 0.000000 -0.000000 -0.000002 -8.207797 -6.751718 -1.599544 -1.024699 -5.267503 10.063264 12.369467 -4.593845 3.315068 -10.293918 1.081046 -7.427262 -0.268677 -0.000002 0.000002 -0.000000 -0.000001 -0.000000 8.207802 -6.751708 -1.599545 -19.247791 11.100522 15.839697 22.610295 9.628698 1.980532 -2.423927 3.178096 -8.599875 -0.986730 -0.000027 -0.000004 -0.000000 -0.000000 0.000000 
0.878195 101.642899 2.231653 -0.809861 1.509268 -5.274489 0.000000 10.181540 0.131522 0.848222 -1.282672 3.006764 0.547735 0.220602 5.973728 0.528689 0.741254 5.880682 0.000001 16.740345 -2.049021 0.610536 -0.229453 -2.178305 -0.000003 9.617823 1.684978 1.799178 1.090264 -9.270283 -0.000000 22.037354 7.501074 0.000000 -0.000000 0.000000 -4.570000 11.014842 -2.160841 4.560817 3.002949 5.505762 0.195499 1.654581 66.799810 -0.000001 18.362600 0.000011 -11.837347 -9.804612 10.892915 -2.464795 -1.573973 2.681911 18.491284 0.461461 -10.916072 1.284021 -32.757604 3.089004 -2.646264 -1.527810 1.527815 2.008735 -8.430485 1.114704 -1.994597 -1.151583 1.151576 0.000001 -0.000001 -0.000000 -9.108287 -0.517870 2.259802 0.339555 -4.671326 7.844253 0.387028 -2.823572 20.566196 -0.193135 -0.216341 13.843915 -0.000000 -0.000000 0.000006 -9.532502 -0.000004 -0.000001 0.912569 -8.769238 15.831723 0.919074 -3.991128 33.400373 0.216468 -1.688812 15.898023 0.000001 -0.000001 0.000001 -9.103608 -0.043116 -1.865103 2.555789 -11.673014 26.909139 1.710660 -3.886775 40.215399 -0.157960 0.035284 17.815309 -0.000001 0.000000 -0.000000 -8.076682 -0.486722 -3.806301 5.576057 -16.029165 36.940576 1.378670 -4.077628 45.645543 -0.727750 -0.247553 22.122699 -0.000000 0.000000 -0.000003 4.570404 11.014678 -2.160814 3.369917 -13.437734 -4.988731 4.463400 3.421643 -83.232795 -0.000008 -15.282343 0.000007 -26.512013 4.489984 -9.951148 2.466089 -1.576210 2.681694 18.491371 -0.461332 10.916056 1.284014 32.757598 -3.088989 2.647882 -1.528746 1.528751 2.117157 9.311153 -0.358642 1.998921 -1.154088 1.154069 -0.000001 -0.000001 0.000001 9.109303 -0.518014 2.259899 0.339556 4.671370 -7.844326 0.387014 2.823623 -20.566248 0.034612 0.816850 -10.169809 -0.000000 -0.000001 -0.000000 9.533391 -0.000001 0.000000 0.912577 8.769291 -15.831798 0.919040 3.991206 -33.400465 0.170550 1.488895 -12.264411 0.000000 -0.000000 -0.000001 9.104483 -0.043013 -1.865101 2.555794 11.673077 -26.909224 1.710619 3.886862 -40.215505 0.544834 1.835110 -19.344141 0.000000 -0.000002 -0.000000 8.077801 -0.486891 -3.806299 5.576043 16.029248 -36.940668 1.378655 4.077724 -45.645652 0.486561 2.853424 -20.524722 0.000002 0.000001 -0.000001 -8.207799 -6.751709 -1.599544 -1.194608 -5.215418 10.148295 12.401083 -4.653416 3.322625 -10.218139 1.022676 -7.501086 -0.333464 -0.000001 -0.000001 -0.000000 -0.000001 -0.000000 8.207797 -6.751691 -1.599544 -19.373867 11.049059 15.875996 22.526522 9.615288 2.016879 -2.259607 3.168243 -8.612192 -0.868345 -0.000007 0.000001 0.000000 0.000002 0.000000 
0.797487 101.633224 2.078902 -0.781453 1.562754 -5.299206 0.000000 10.181547 0.131524 0.938514 -1.281305 2.998833 0.589260 0.222857 5.966068 0.570320 0.742749 5.873147 0.000003 16.740379 -2.049021 0.644955 -0.242275 -2.185383 0.000000 9.617867 1.684976 1.688664 0.982105 -9.089953 0.000001 22.037384 7.501072 -0.000001 0.000000 -0.000000 -4.569996 11.014900 -2.160840 4.552477 3.051416 5.489908 -0.131376 1.669145 66.950211 0.000012 18.211560 0.000017 -11.047273 -9.698852 10.984771 -2.464787 -1.573983 2.681901 18.491293 0.461465 -10.916067 1.284034 -32.757604 3.089027 -2.646263 -1.527801 1.527818 2.008730 -8.430492 1.114700 -1.994609 -1.151573 1.151574 0.000002 0.000000 0.000001 -9.108293 -0.517875 2.259803 0.339562 -4.671327 7.844246 0.387039 -2.823575 20.566202 -0.193135 -0.216341 13.843915 0.000000 -0.000000 0.000006 -9.532491 0.000003 -0.000001 0.912582 -8.769241 15.831709 0.919066 -3.991125 33.400363 0.216460 -1.688811 15.898010 -0.000000 -0.000000 0.000001 -9.103581 -0.043105 -1.865105 2.555811 -11.673014 26.909140 1.710638 -3.886769 40.215406 -0.157950 0.035269 17.815328 -0.000000 0.000000 -0.000000 -8.076682 -0.486728 -3.806299 5.576070 -16.029166 36.940576 1.378676 -4.077630 45.645580 -0.727748 -0.247554 22.122708 -0.000002 -0.000001 -0.000002 4.570404 11.014695 -2.160815 3.436059 -13.513762 -4.998849 4.387304 3.389482 -83.299362 0.000001 -15.052096 -0.000025 -26.392035 4.493874 -10.078252 2.466079 -1.576196 2.681692 18.491381 -0.461328 10.916049 1.284021 32.757618 -3.089002 2.647886 -1.528754 1.528748 2.117138 9.311165 -0.358625 1.998921 -1.154093 1.154072 0.000001 0.000004 0.000001 9.109282 -0.518012 2.259901 0.339557 4.671370 -7.844303 0.387004 2.823615 -20.566226 0.034625 0.816852 -10.169813 0.000001 -0.000000 -0.000006 9.533387 0.000005 -0.000000 0.912568 8.769293 -15.831745 0.919045 3.991197 -33.400448 0.170553 1.488894 -12.264410 -0.000002 -0.000000 -0.000002 9.104471 -0.043005 -1.865098 2.555798 11.673076 -26.909187 1.710610 3.886862 -40.215488 0.544832 1.835098 -19.344137 0.000001 0.000001 0.000000 8.077798 -0.486886 -3.806302 5.576046 16.029242 -36.940634 1.378634 4.077722 -45.645645 0.486560 2.853431 -20.524730 0.000000 0.000000 0.000001 -8.207797 -6.751706 -1.599544 -1.367203 -5.159458 10.237628 12.466369 -4.713499 3.320154 -10.163424 0.938757 -7.568318 -0.403079 -0.000003 -0.000002 -0.000000 -0.000000 0.000000 8.207800 -6.751700 -1.599543 -19.491097 10.973701 15.889568 22.459252 9.614626 2.084082 -2.103743 3.157640 -8.641601 -0.688028 -0.000005 0.000000 0.000000 -0.000002 0.000000 
0.721722 101.623802 1.937217 -0.771431 1.616827 -5.325076 0.000001 10.181538 0.131524 1.032383 -1.273942 2.994214 0.628867 0.227346 5.958045 0.610104 0.746529 5.865200 0.000002 16.740379 -2.049022 0.702445 -0.260304 -2.184832 0.000001 9.617864 1.684975 1.556799 0.854220 -8.888999 -0.000001 22.037384 7.501071 0.000000 -0.000000 0.000000 -4.570001 11.014846 -2.160840 4.542574 3.112428 5.487286 -0.456295 1.563425 67.082320 -0.000012 18.034684 0.000030 -10.650412 -9.600835 10.931487 -2.464795 -1.573986 2.681904 18.491281 0.461456 -10.916099 1.284031 -32.757632 3.089022 -2.646259 -1.527804 1.527817 2.008725 -8.430465 1.114695 -1.994586 -1.151586 1.151576 0.000001 -0.000002 0.000001 -9.108298 -0.517883 2.259802 0.339556 -4.671349 7.844273 0.387036 -2.823578 20.566246 -0.193126 -0.216349 13.843945 0.000000 -0.000000 0.000005 -9.532488 0.000012 -0.000001 0.912578 -8.769258 15.831745 0.919066 -3.991131 33.400428 0.216472 -1.688827 15.898063 -0.000000 -0.000001 0.000002 -9.103606 -0.043110 -1.865104 2.555805 -11.673026 26.909202 1.710655 -3.886778 40.215474 -0.157964 0.035289 17.815333 -0.000001 -0.000000 0.000000 -8.076675 -0.486728 -3.806299 5.576066 -16.029161 36.940627 1.378680 -4.077639 45.645615 -0.727743 -0.247553 22.122739 0.000001 0.000000 0.000001 4.570404 11.014681 -2.160815 3.488022 -13.598752 -5.023753 4.268545 3.355911 -83.384657 -0.000000 -14.846424 0.000005 -26.339508 4.417190 -10.034083 2.466104 -1.576220 2.681696 18.491380 -0.461330 10.916017 1.284011 32.757615 -3.088969 2.647869 -1.528750 1.528753 2.117143 9.311175 -0.358634 1.998924 -1.154094 1.154074 -0.000000 -0.000002 0.000003 9.109285 -0.518009 2.259901 0.339560 4.671364 -7.844267 0.387007 2.823617 -20.566212 0.034608 0.816851 -10.169813 0.000000 0.000001 -0.000001 9.533402 -0.000002 0.000001 0.912559 8.769292 -15.831711 0.919055 3.991198 -33.400421 0.170550 1.488894 -12.264403 -0.000001 -0.000000 0.000001 9.104499 -0.042993 -1.865098 2.555799 11.673072 -26.909163 1.710605 3.886850 -40.215464 0.544840 1.835116 -19.344154 -0.000001 0.000001 0.000000 8.077806 -0.486888 -3.806302 5.576035 16.029235 -36.940583 1.378647 4.077732 -45.645594 0.486568 2.853420 -20.524725 -0.000001 0.000000 0.000003 -8.207799 -6.751711 -1.599544 -1.509204 -5.104079 10.328456 12.525215 -4.791891 3.311235 -10.113015 0.875349 -7.624225 -0.461532 -0.000002 -0.000000 -0.000000 -0.000001 -0.000000 8.207799 -6.751705 -1.599545 -19.581396 10.891161 15.890871 22.395601 9.610537 2.169802 -1.957580 3.164714 -8.683033 -0.494424 -0.000007 -0.000001 0.000000 -0.000002 0.000000 
